<?xml version="1.0" encoding="UTF-8"?> <svg xmlns="http://www.w3.org/2000/svg" viewBox="0 0 174 48"><defs><style>.cls-1{fill:#20b9fb;}</style></defs><title>logo_syte_mbl1</title><g id="Слой_2" data-name="Слой 2"><g id="Слой_1-2" data-name="Слой 1"><path d="M141.51,42.41a2.09,2.09,0,1,1,0-4.17,2.09,2.09,0,1,1,0,4.17Z"></path><path d="M149.7,24.28v6.89a5.17,5.17,0,0,1,4-1.65c3.87,0,5.95,3.12,5.95,6.45s-2.08,6.46-5.95,6.46a5.14,5.14,0,0,1-4.42-2.13v1.78h-3.13V24.28Zm3.15,8.21a3.5,3.5,0,0,0-3.18,2v2.9a3.5,3.5,0,0,0,3.18,2,3.22,3.22,0,0,0,3.2-3.49A3.21,3.21,0,0,0,152.85,32.49Z"></path><path d="M170.34,29.87H174l-5.42,13.68C167.21,47,165.3,48,163.32,48a8.31,8.31,0,0,1-1.9-.28V44.8a7.08,7.08,0,0,0,1.44.17c1.28,0,2.24-.86,2.9-2.67l0,0L160,29.87h3.73l3.56,8.24Z"></path><path d="M38.42,11.56V48H32.49V22.49L21,39.77H17.44L5.94,22.44V48H0V11.56H5.36L19.21,32.43,33.06,11.56Z"></path><path d="M62.39,11.56c7.6,0,12.49,3,12.49,9.21a8,8,0,0,1-5.72,8c3.28.94,7.18,3.43,7.18,9.11,0,8.28-8.07,10.1-13.85,10.1H47V11.56Zm-.63,5.15H52.91v9.94l9.69.06c3.43,0,6.24-1.46,6.24-5S66.14,16.71,61.76,16.71Zm1,15H52.91V42.79h9c4.06,0,8.38-.46,8.38-5.51C70.3,32.43,66,31.7,62.75,31.7Z"></path><path d="M88.83,11.56V42.48h9.73L96,48H82.89V11.56Z"></path><path d="M126.21,48V6.44H115.83L119,0h14.66V48Z"></path><rect class="cls-1" x="95.2" y="11.56" width="25.07" height="25.07"></rect></g></g></svg> 