<?xml version="1.0" standalone="no"?>
<!DOCTYPE svg PUBLIC "-//W3C//DTD SVG 20010904//EN"
 "http://www.w3.org/TR/2001/REC-SVG-20010904/DTD/svg10.dtd">
<svg version="1.0" xmlns="http://www.w3.org/2000/svg"
 width="132.000000pt" height="48.000000pt" viewBox="0 0 132.000000 48.000000"
 preserveAspectRatio="xMidYMid meet">

<g transform="translate(0.000000,48.000000) scale(0.100000,-0.100000)"
fill="#000000" stroke="none">
<path d="M1180 461 c-18 -34 -11 -41 35 -41 l45 0 0 -150 0 -150 30 0 30 0 0
180 0 180 -65 0 c-53 0 -66 -3 -75 -19z"/>
<path d="M0 180 l0 -180 30 0 30 0 0 128 0 127 58 -87 c36 -55 64 -88 75 -88
11 0 36 29 70 82 l52 83 3 -123 3 -122 29 0 30 0 0 180 0 180 -27 0 c-24 0
-37 -14 -95 -102 l-66 -101 -68 102 c-59 89 -71 101 -96 101 l-28 0 0 -180z"/>
<path d="M470 180 l0 -180 95 0 c102 0 168 18 185 51 20 37 12 89 -18 118 -28
25 -28 27 -10 41 10 8 21 32 25 52 5 32 1 41 -25 68 -30 30 -31 30 -141 30
l-111 0 0 -180z m204 114 c43 -43 1 -84 -86 -84 l-58 0 0 50 0 50 64 0 c45 0
69 -5 80 -16z m7 -144 c12 -7 19 -21 19 -40 0 -42 -32 -60 -107 -60 l-63 0 0
55 0 55 66 0 c36 0 74 -5 85 -10z"/>
<path d="M830 180 l0 -180 65 0 c53 0 66 3 75 19 18 34 11 41 -35 41 l-45 0 0
150 0 150 -30 0 -30 0 0 -180z"/>
</g>
</svg>
